<svg width="608" height="107" viewBox="0 0 608 107" fill="none" xmlns="http://www.w3.org/2000/svg">
<path d="M8.11733 34.3853C-2.488 44.988 -2.488 62.1813 8.11733 72.7853L41.7307 106.397C52.504 95.6253 52.504 78.1573 41.7307 67.384L27.9307 53.5853L41.7773 39.7373C52.5507 28.964 52.5507 11.4973 41.7773 0.723996L8.11733 34.3853Z" fill="url(#paint0_linear_1_3)"/>
<path d="M8.11733 34.3853C-2.488 44.988 -2.488 62.1813 8.11733 72.7853L41.7307 106.397C52.504 95.6253 52.504 78.1573 41.7307 67.384L27.9307 53.5853L19.2467 44.9013C13.2693 38.9227 13.2693 29.232 19.2467 23.2533L8.11733 34.3853Z" fill="url(#paint1_linear_1_3)"/>
<path d="M565.767 39.7373L579.567 53.536L565.72 67.384C554.947 78.1573 554.947 95.624 565.72 106.397L599.38 72.7373C609.984 62.132 609.984 44.9413 599.38 34.3373L565.767 0.723996C554.993 11.4973 554.993 28.964 565.767 39.7373Z" fill="url(#paint2_linear_1_3)"/>
<path d="M565.767 39.7374L579.567 53.536L588.249 62.2213C594.228 68.1987 594.228 77.8907 588.249 83.8667L599.38 72.7373C609.984 62.132 609.984 44.9413 599.38 34.3373L565.767 0.724014C554.993 11.4973 554.993 28.964 565.767 39.7374Z" fill="url(#paint3_linear_1_3)"/>
<path d="M71.6907 26.1214C67.992 31.2867 66.1413 40.4334 66.1413 53.5614C66.1413 59.8254 66.508 65.0227 67.2427 69.1547C67.9733 73.288 69.3067 76.8867 71.24 79.9507C73.172 83.0173 75.8387 85.2493 79.2373 86.648C82.636 88.048 87.1667 88.7467 92.832 88.7467C98.496 88.7467 104.86 87.98 111.924 86.448L111.624 75.152C105.427 76.0853 99.58 76.5533 94.0813 76.5533C88.5827 76.5533 84.9173 75.036 83.0853 72.004C81.252 68.972 80.336 63.524 80.336 55.66C80.336 47.7973 80.7867 42.232 81.6867 38.9667C82.5867 35.7027 83.968 33.4853 85.8347 32.32C87.7 31.1533 90.816 30.5693 95.18 30.5693C99.5453 30.5693 105.028 31.0707 111.624 32.0693L112.024 21.0733C104.492 19.2747 97.8627 18.3747 92.132 18.3747C82.2013 18.3747 75.3893 20.9574 71.6907 26.1214Z" fill="url(#paint4_radial_1_3)"/>
<path d="M125.869 27.1214C121.637 32.9534 119.523 41.8653 119.523 53.8613C119.523 65.8573 121.637 74.6707 125.869 80.3C130.1 85.932 137.381 88.7467 147.711 88.7467C158.04 88.7467 165.319 85.932 169.553 80.3C173.784 74.6707 175.901 65.8573 175.901 53.8613C175.901 41.8653 173.784 32.9534 169.553 27.1214C165.319 21.2907 158.04 18.3747 147.711 18.3747C137.381 18.3747 130.1 21.2907 125.869 27.1214ZM136.665 71.504C134.699 68.0054 133.716 62.1413 133.716 53.9107C133.716 45.6813 134.716 39.7014 136.715 35.968C138.715 32.2374 142.379 30.3694 147.711 30.3694C153.041 30.3694 156.708 32.2374 158.705 35.968C160.705 39.7014 161.705 45.6813 161.705 53.9107C161.705 62.1413 160.721 68.0054 158.756 71.504C156.791 75.0027 153.109 76.7533 147.711 76.7533C142.313 76.7533 138.631 75.0027 136.665 71.504Z" fill="url(#paint5_radial_1_3)"/>
<path d="M187.696 19.5733V87.548H210.585C216.584 87.548 221.515 86.832 225.38 85.3973C229.244 83.9667 232.193 81.668 234.227 78.5014C236.26 75.3374 237.641 71.7387 238.375 67.7067C239.108 63.6747 239.476 58.5933 239.476 52.4613C239.476 46.3307 239.076 41.3493 238.276 37.5173C237.476 33.6853 236.027 30.3533 233.927 27.5213C231.828 24.6893 228.879 22.6573 225.08 21.424C221.283 20.1907 216.449 19.5733 210.585 19.5733H187.696ZM201.489 31.5693H210.585C213.917 31.5693 216.568 31.92 218.533 32.62C220.497 33.3173 221.981 34.6014 222.981 36.468C223.981 38.3334 224.613 40.4 224.881 42.6653C225.147 44.932 225.281 47.9467 225.281 51.712C225.281 55.4773 225.213 58.4254 225.08 60.5587C224.613 65.956 223.413 69.688 221.483 71.7533C219.216 74.288 215.584 75.552 210.585 75.552H201.489V31.5693Z" fill="url(#paint6_radial_1_3)"/>
<path d="M251.469 19.5733V87.548H295.452V75.552H265.264V59.26H289.455V47.464H265.264V31.5693H295.452V19.5733H251.469Z" fill="url(#paint7_radial_1_3)"/>
<path d="M306.845 19.5733V87.548H320.641V64.7573H333.936L341.833 87.548H356.927L347.231 61.5573C353.893 57.36 357.227 50.8293 357.227 41.9653C357.227 27.0387 349.229 19.5733 333.235 19.5733H306.845ZM320.641 31.3694H333.235C336.435 31.3694 338.884 32.336 340.583 34.268C342.281 36.2013 343.133 38.8 343.133 42.0654C343.133 45.3307 342.333 47.9627 340.733 49.9613C339.135 51.9613 336.701 52.9613 333.436 52.9613H320.641V31.3694Z" fill="url(#paint8_radial_1_3)"/>
<path d="M377.62 19.5733L362.325 87.548H376.12L378.82 75.2533H402.609L405.308 87.548H419.103L403.808 19.5733H377.62ZM388.315 30.9693H393.113L400.011 63.2573H381.417L388.315 30.9693Z" fill="url(#paint9_radial_1_3)"/>
<path d="M468.883 19.5733V75.552H467.884L451.489 19.5733H428.2V87.548H441.993V31.5693H442.993L459.987 87.548H482.679V19.5733H468.883Z" fill="url(#paint10_radial_1_3)"/>
<path d="M491.373 19.5733V31.7693H509.567V87.548H523.361V31.7693H541.353V19.5733H491.373Z" fill="url(#paint11_radial_1_3)"/>
<defs>
<linearGradient id="paint0_linear_1_3" x1="66.8361" y1="28.4782" x2="18.6476" y2="76.6666" gradientUnits="userSpaceOnUse">
<stop stop-color="#00DDE7"/>
<stop offset="0.23997" stop-color="#00DDE7"/>
<stop offset="0.88384" stop-color="#FF42FF"/>
<stop offset="1" stop-color="#FF42FF"/>
</linearGradient>
<linearGradient id="paint1_linear_1_3" x1="4.01116" y1="38.3489" x2="66.2557" y2="100.593" gradientUnits="userSpaceOnUse">
<stop stop-color="#00DDE7"/>
<stop offset="0.0502524" stop-color="#00DDE7"/>
<stop offset="0.905973" stop-color="#FF42FF"/>
<stop offset="1" stop-color="#FF42FF"/>
</linearGradient>
<linearGradient id="paint2_linear_1_3" x1="540.661" y1="78.6436" x2="588.849" y2="30.4551" gradientUnits="userSpaceOnUse">
<stop stop-color="#00DDE7"/>
<stop offset="0.23997" stop-color="#00DDE7"/>
<stop offset="0.88384" stop-color="#FF42FF"/>
<stop offset="1" stop-color="#FF42FF"/>
</linearGradient>
<linearGradient id="paint3_linear_1_3" x1="603.486" y1="68.7728" x2="541.241" y2="6.52833" gradientUnits="userSpaceOnUse">
<stop stop-color="#00DDE7"/>
<stop offset="0.0502524" stop-color="#00DDE7"/>
<stop offset="0.905973" stop-color="#FF42FF"/>
<stop offset="1" stop-color="#FF42FF"/>
</linearGradient>
<radialGradient id="paint4_radial_1_3" cx="0" cy="0" r="1" gradientUnits="userSpaceOnUse" gradientTransform="translate(89.0833 53.5609) scale(29.7017)">
<stop stop-color="#00A9E7"/>
<stop offset="0.0502524" stop-color="#00A9E7"/>
<stop offset="0.905973" stop-color="#1A79E6"/>
<stop offset="1" stop-color="#1A79E6"/>
</radialGradient>
<radialGradient id="paint5_radial_1_3" cx="0" cy="0" r="1" gradientUnits="userSpaceOnUse" gradientTransform="translate(147.711 53.5609) scale(31.8804 31.8804)">
<stop stop-color="#00A9E7"/>
<stop offset="0.0502524" stop-color="#00A9E7"/>
<stop offset="0.905973" stop-color="#1A79E6"/>
<stop offset="1" stop-color="#1A79E6"/>
</radialGradient>
<radialGradient id="paint6_radial_1_3" cx="0" cy="0" r="1" gradientUnits="userSpaceOnUse" gradientTransform="translate(213.585 53.5609) scale(30.211 30.211)">
<stop stop-color="#00A9E7"/>
<stop offset="0.0502524" stop-color="#00A9E7"/>
<stop offset="0.905973" stop-color="#1A79E6"/>
<stop offset="1" stop-color="#1A79E6"/>
</radialGradient>
<radialGradient id="paint7_radial_1_3" cx="0" cy="0" r="1" gradientUnits="userSpaceOnUse" gradientTransform="translate(273.461 53.5609) scale(28.6247 28.6247)">
<stop stop-color="#00A9E7"/>
<stop offset="0.0502524" stop-color="#00A9E7"/>
<stop offset="0.905973" stop-color="#1A79E6"/>
<stop offset="1" stop-color="#1A79E6"/>
</radialGradient>
<radialGradient id="paint8_radial_1_3" cx="0" cy="0" r="1" gradientUnits="userSpaceOnUse" gradientTransform="translate(332.037 53.5609) scale(29.9138 29.9138)">
<stop stop-color="#00A9E7"/>
<stop offset="0.0502524" stop-color="#00A9E7"/>
<stop offset="0.905973" stop-color="#1A79E6"/>
<stop offset="1" stop-color="#1A79E6"/>
</radialGradient>
<radialGradient id="paint9_radial_1_3" cx="0" cy="0" r="1" gradientUnits="userSpaceOnUse" gradientTransform="translate(390.714 53.5609) scale(31.3134 31.3134)">
<stop stop-color="#00A9E7"/>
<stop offset="0.0502524" stop-color="#00A9E7"/>
<stop offset="0.905973" stop-color="#1A79E6"/>
<stop offset="1" stop-color="#1A79E6"/>
</radialGradient>
<radialGradient id="paint10_radial_1_3" cx="0" cy="0" r="1" gradientUnits="userSpaceOnUse" gradientTransform="translate(455.438 53.5609) scale(30.7986 30.7986)">
<stop stop-color="#00A9E7"/>
<stop offset="0.0502524" stop-color="#00A9E7"/>
<stop offset="0.905973" stop-color="#1A79E6"/>
<stop offset="1" stop-color="#1A79E6"/>
</radialGradient>
<radialGradient id="paint11_radial_1_3" cx="0" cy="0" r="1" gradientUnits="userSpaceOnUse" gradientTransform="translate(516.364 53.5609) scale(29.8299 29.8298)">
<stop stop-color="#00A9E7"/>
<stop offset="0.0502524" stop-color="#00A9E7"/>
<stop offset="0.905973" stop-color="#1A79E6"/>
<stop offset="1" stop-color="#1A79E6"/>
</radialGradient>
</defs>
</svg>
